<svg width="32" height="32" viewBox="0 0 32 32" fill="none" xmlns="http://www.w3.org/2000/svg">
<circle cx="16" cy="16" r="16" fill="#BDD6FF"/>
<path d="M17.5 8.5H11.5C10.675 8.5 10 9.175 10 10V22C10 22.825 10.675 23.5 11.5 23.5H20.5C21.325 23.5 22 22.825 22 22V13L17.5 8.5ZM11.5 22V10H16.75V13.75H20.5V22H11.5ZM17.5 17.5L19 16.705V19.795L17.5 19V19.75C17.5 20.1625 17.1625 20.5 16.75 20.5H13.75C13.3375 20.5 13 20.1625 13 19.75V16.75C13 16.3375 13.3375 16 13.75 16H16.75C17.1625 16 17.5 16.3375 17.5 16.75V17.5Z" fill="#4766D7"/>
</svg>
